<svg height='100px' width='100px'  fill="#000000" xmlns="http://www.w3.org/2000/svg" xmlns:xlink="http://www.w3.org/1999/xlink" version="1.0" x="0px" y="0px" viewBox="0 0 100 100" enable-background="new 0 0 100 100" xml:space="preserve"><path d="M14.5931129,65.2880325c0.7250357-1.0875473,2.2441578-1.001236,3.0684547-0.2114639  c2.1621609-0.189888,4.1214848-0.5437775,5.6967106-0.655983c0.8286133-0.3409424,24.5519581-23.9693451,34.0853195-29.6056328  c2.2614212-1.3378639,4.2897949,2.0974236,2.0283737,3.4352875c-9.5678825,5.6578674-22.9378891,19.938488-32.307251,28.1555595  c0.1165237,0.8976669-0.0561047,2.1664734-0.5783024,3.9272766c-0.6775627,2.3045807-0.2244167,1.0228195,3.8237019,1.8471146  l34.1284714-31.3793793c1.9334259-1.7780647,4.6350479,1.160923,2.701622,2.9389839L33.7634048,74.5192947  c0.4272537,1.1393433,0.4013596,2.7102509,0.3193626,4.8206253c7.4316177-5.7269211,30.0976219-27.1284218,40.2610664-38.3966904  L65.9239273,30.214426c-1.2601852-1.5881729-3.5647621-3.1892948-5.4550323-4.5271587L22.3699856,63.8120689  c-1.8557472,1.8643761-4.6782074-0.9537659-2.8267765-2.8095131L57.5212784,22.994278  c-0.4013596-1.3982849,1.040081-2.9217224,2.485836-2.4815216l4.652317-4.6566296  c14.0734634-14.0605173,28.2807083-2.5505724,25.3891983,9.3305206  c-2.7879333,11.4581547-32.8941841,38.690155-38.6599464,44.0847702  c-9.2485237,8.6615906-16.4945679,15.4415359-21.694973,17.4612808c-3.4223404,1.3292313-15.933526,4.3588486-18.2251568,3.8193893  c-3.1461382-0.7379837-1.5752268-6.8921585-0.9149265-9.9908218c0.9019794-4.2250595,2.235527-9.226944,3.0511932-12.1745605  C12.9056778,67.363884,13.2336702,65.6850815,14.5931129,65.2880325z M15.1412058,78.3732071  c1.6572237,0.4790421,4.1214838,1.756485,5.8175497,6.7108994c3.4482365-0.789772,6.7756329-1.5924911,9.2053661-3.0252991  c-0.358202-0.9019775,0.1122074-3.5216064-0.0258942-4.7602081c-0.9062958,0.0647354-1.7478542-0.5783005-2.0542679-1.4025955  c-3.5906544-0.2718887-7.0216274-0.9321899-5.3212471-6.6893234c0.0776825-0.2718887,0.3193626-0.4358826,0.5912495-0.5437775  c-1.7478542-0.2546234-3.2195034,0.2891541-5.8175488,0.444519C16.9322166,71.2868423,15.9698181,74.881813,15.1412058,78.3732071z   M17.0271626,85.9127197c-0.8847179-2.3606873-1.8686943-3.1979294-2.7663584-3.5820236l-0.7077723,4.1646423  C14.5154305,86.3658676,15.7151918,86.1630249,17.0271626,85.9127197z M68.5651245,17.6471386  c5.1443024,3.5906525,8.5623322,9.0197906,11.8767776,16.123415c2.9735107-3.7848587,5.1658859-7.1813068,5.7355576-9.5204105  C88.0806732,16.4171658,79.2291946,8.1180954,68.5651245,17.6471386z M77.623764,37.2015266  c-3.0511932-6.7670002-6.900795-13.8274689-11.9630966-16.71035l-2.3434181,2.34342  c1.9032173,1.3378639,4.2250633,3.0037193,5.7139702,4.8810444l7.914978,10.2842903  C77.1749268,37.732357,77.3993454,37.469101,77.623764,37.2015266z M12.6942091,86.5945969L12.6942091,86.5945969z"></path></svg>